<?xml version="1.0" encoding="UTF-8" standalone="no"?>
<svg
   width="135.45085"
   height="109.18947"
   viewBox="0 0 135.45084 109.18947"
   fill="none"
   version="1.1"
   id="svg10257"
   sodipodi:docname="asesoria.svg"
   xml:space="preserve"
   inkscape:export-filename="asesorr.svg"
   inkscape:export-xdpi="96"
   inkscape:export-ydpi="96"
   xmlns:inkscape="http://www.inkscape.org/namespaces/inkscape"
   xmlns:sodipodi="http://sodipodi.sourceforge.net/DTD/sodipodi-0.dtd"
   xmlns="http://www.w3.org/2000/svg"
   xmlns:svg="http://www.w3.org/2000/svg"><defs
     id="defs10261" /><sodipodi:namedview
     id="namedview10259"
     pagecolor="#ffffff"
     bordercolor="#000000"
     borderopacity="0.25"
     inkscape:showpageshadow="2"
     inkscape:pageopacity="0.0"
     inkscape:pagecheckerboard="0"
     inkscape:deskcolor="#d1d1d1"
     showgrid="false"
     inkscape:zoom="7.6826196"
     inkscape:cx="-1.952459"
     inkscape:cy="29.482131"
     inkscape:window-width="1920"
     inkscape:window-height="991"
     inkscape:window-x="-9"
     inkscape:window-y="-9"
     inkscape:window-maximized="1"
     inkscape:current-layer="svg10257" /><g
     id="g9785"
     transform="matrix(3.6649875,0,0,3.6649875,371.73318,519.11007)"
     style="display:none"><rect
       style="fill:#000000;fill-opacity:1;stroke-width:0.0995035;stroke-linecap:round;stroke-linejoin:round;paint-order:stroke fill markers"
       id="rect9562"
       width="4.981935"
       height="19.161289"
       x="-82.506287"
       y="-129.90771" /><rect
       style="fill:#000000;fill-opacity:1;stroke-width:0.137867;stroke-linecap:round;stroke-linejoin:round;paint-order:stroke fill markers"
       id="rect9562-2"
       width="4.9819436"
       height="36.784554"
       x="-130.48506"
       y="64.381027"
       transform="matrix(0.00221599,0.99999754,-0.9999998,6.3791253e-4,0,0)" /><rect
       style="fill:#000000;fill-opacity:1;stroke-width:0.12348;stroke-linecap:round;stroke-linejoin:round;paint-order:stroke fill markers"
       id="rect9562-2-7"
       width="6.0607805"
       height="24.255426"
       x="-116.80437"
       y="70.418938"
       transform="matrix(0.00120111,0.99999928,-0.99999931,0.00117692,0,0)" /><rect
       style="fill:#000000;fill-opacity:1;stroke-width:0.0978732;stroke-linecap:round;stroke-linejoin:round;paint-order:stroke fill markers"
       id="rect9562-6"
       width="4.981935"
       height="18.538548"
       x="-89.466286"
       y="-129.26855" /><rect
       style="fill:#000000;fill-opacity:1;stroke-width:0.0981123;stroke-linecap:round;stroke-linejoin:round;paint-order:stroke fill markers"
       id="rect9562-1"
       width="4.981935"
       height="18.629217"
       x="-96.426277"
       y="-129.26324" /><rect
       style="fill:#000000;fill-opacity:1;stroke-width:0.0754186;stroke-linecap:round;stroke-linejoin:round;paint-order:stroke fill markers"
       id="rect9562-1-1"
       width="3.8295987"
       height="14.320225"
       x="-145.74394"
       y="-83.381195"
       transform="rotate(28.447626)" /><rect
       style="fill:#000000;fill-opacity:1;stroke-width:0.0754186;stroke-linecap:round;stroke-linejoin:round;paint-order:stroke fill markers"
       id="rect9562-1-1-1"
       width="3.8295987"
       height="14.320225"
       x="1.9417343"
       y="-163.49661"
       transform="matrix(-0.87925291,0.47635524,0.47635524,0.87925291,0,0)" /><rect
       style="fill:#000000;fill-opacity:1;stroke-width:0.0886729;stroke-linecap:round;stroke-linejoin:round;paint-order:stroke fill markers"
       id="rect9562-1-54"
       width="4.9231391"
       height="15.398795"
       x="-78.081558"
       y="-131.17938"
       transform="matrix(0.99891622,-0.04654448,0.15952951,0.98719316,0,0)" /><rect
       style="fill:#000000;fill-opacity:1;stroke-width:0.0886729;stroke-linecap:round;stroke-linejoin:round;paint-order:stroke fill markers"
       id="rect9562-1-54-3"
       width="4.9231391"
       height="15.398795"
       x="87.824997"
       y="-123.32911"
       transform="matrix(-0.99891622,-0.04654448,-0.15952951,0.98719316,0,0)" /><rect
       style="fill:#000000;fill-opacity:1;stroke-width:0.100985;stroke-linecap:round;stroke-linejoin:round;paint-order:stroke fill markers"
       id="rect9562-1-5"
       width="4.981935"
       height="19.736128"
       x="-75.495483"
       y="-130.39256" /></g><path
     id="path9559"
     style="fill:#e08747;fill-opacity:1;stroke-width:0.221785"
     d="m 76.543514,25.487884 v 8.871401 8.871396 h 8.760504 8.760502 V 34.359285 25.487884 H 85.304018 Z M 42.61043,39.903903 v 8.871392 8.871405 h 8.760502 8.7605 v -8.871405 -8.871392 h -8.7605 z m 42.818338,6.432191 c -17.160538,0 -17.256736,0.0026 -17.842418,0.463066 -1.165661,0.916679 -1.244942,1.33452 -1.244942,6.511896 v 4.77964 l 2.273295,0.0067 c 2.057716,0.0067 2.328656,0.056 2.858079,0.522404 1.017542,0.896433 1.078601,1.210857 1.078601,5.555449 v 4.11775 H 88.076325 103.60125 V 57.898971 c 0,-5.229687 0.0261,-7.520858 -0.008,-8.608886 a 2.4092698,2.4895787 0 0 0 0.0352,-0.414982 2.4092698,2.4895787 0 0 0 -2.4093,-2.48945 2.4092698,2.4895787 0 0 0 -0.1135,0.0045 l -0.0706,-0.05376 z m -51.082857,14.637378 -0.05543,0.05376 a 2.4092698,2.4895787 0 0 0 -1.851808,1.853109 l -0.03037,0.03077 v 0.12172 a 2.4092698,2.4895787 0 0 0 -0.03812,0.43058 2.4092698,2.4895787 0 0 0 0.03812,0.430573 v 9.026905 10.009347 H 51.038228 69.66816 V 72.655761 64.494339 a 2.4092698,2.4895787 0 0 0 0.126056,-0.790111 2.4092698,2.4895787 0 0 0 -0.126056,-0.794442 v -0.528037 l -0.499016,-0.454832 c -1.062963,-0.968189 -0.78482,-0.95342 -18.145634,-0.95342 z" /></svg>
