<?xml version="1.0" encoding="UTF-8" standalone="no"?>
<svg
   width="41"
   height="37"
   viewBox="0 0 41 37"
   fill="none"
   version="1.1"
   id="svg10257"
   sodipodi:docname="barsmulti.svg"
   inkscape:version="1.2.2 (732a01da63, 2022-12-09)"
   xmlns:inkscape="http://www.inkscape.org/namespaces/inkscape"
   xmlns:sodipodi="http://sodipodi.sourceforge.net/DTD/sodipodi-0.dtd"
   xmlns="http://www.w3.org/2000/svg"
   xmlns:svg="http://www.w3.org/2000/svg">
  <defs
     id="defs10261" />
  <sodipodi:namedview
     id="namedview10259"
     pagecolor="#ffffff"
     bordercolor="#000000"
     borderopacity="0.25"
     inkscape:showpageshadow="2"
     inkscape:pageopacity="0.0"
     inkscape:pagecheckerboard="0"
     inkscape:deskcolor="#d1d1d1"
     showgrid="false"
     inkscape:zoom="7.6826196"
     inkscape:cx="-1.952459"
     inkscape:cy="29.482131"
     inkscape:window-width="1920"
     inkscape:window-height="991"
     inkscape:window-x="-9"
     inkscape:window-y="-9"
     inkscape:window-maximized="1"
     inkscape:current-layer="svg10257" />
  <path
     d="M 1.4912473,7.1218152 H 39.562658 c 0.8088,0 1.4643,-0.65754 1.4643,-1.46875 v -3.67188 c 0,-0.81121 -0.6555,-1.46874795 -1.4643,-1.46874795 H 1.4912473 c -0.808748,0 -1.46429,0.65753795 -1.46429,1.46874795 v 3.67188 c 0,0.81121 0.655542,1.46875 1.46429,1.46875 z m 0,14.6875098 H 39.562658 c 0.8088,0 1.4643,-0.6576 1.4643,-1.4688 v -3.6718 c 0,-0.8112 -0.6555,-1.4688 -1.4643,-1.4688 H 1.4912473 c -0.808748,0 -1.46429,0.6576 -1.46429,1.4688 v 3.6718 c 0,0.8112 0.655542,1.4688 1.46429,1.4688 z m 0,14.6875 H 39.562658 c 0.8088,0 1.4643,-0.6576 1.4643,-1.4688 v -3.6718 c 0,-0.8112 -0.6555,-1.4688 -1.4643,-1.4688 H 1.4912473 c -0.808748,0 -1.46429,0.6576 -1.46429,1.4688 v 3.6718 c 0,0.8112 0.655542,1.4688 1.46429,1.4688 z"
     fill="#ffffff"
     id="path10255"
     style="fill:#e08747;fill-opacity:1" />
</svg>
