<?xml version="1.0" encoding="UTF-8" standalone="no"?>
<svg
   width="135.45085"
   height="109.18947"
   viewBox="0 0 135.45084 109.18947"
   fill="none"
   version="1.1"
   id="svg10257"
   sodipodi:docname="asesoria.svg"
   xml:space="preserve"
   inkscape:export-filename="asesorr.svg"
   inkscape:export-xdpi="96"
   inkscape:export-ydpi="96"
   xmlns:inkscape="http://www.inkscape.org/namespaces/inkscape"
   xmlns:sodipodi="http://sodipodi.sourceforge.net/DTD/sodipodi-0.dtd"
   xmlns="http://www.w3.org/2000/svg"
   xmlns:svg="http://www.w3.org/2000/svg"><defs
     id="defs10261" /><sodipodi:namedview
     id="namedview10259"
     pagecolor="#ffffff"
     bordercolor="#000000"
     borderopacity="0.25"
     inkscape:showpageshadow="2"
     inkscape:pageopacity="0.0"
     inkscape:pagecheckerboard="0"
     inkscape:deskcolor="#d1d1d1"
     showgrid="false"
     inkscape:zoom="7.6826196"
     inkscape:cx="-1.952459"
     inkscape:cy="29.482131"
     inkscape:window-width="1920"
     inkscape:window-height="991"
     inkscape:window-x="-9"
     inkscape:window-y="-9"
     inkscape:window-maximized="1"
     inkscape:current-layer="svg10257" /><g
     id="g9785"
     transform="matrix(3.6649875,0,0,3.6649875,371.73318,519.11007)"
     style="display:none"><rect
       style="fill:#000000;fill-opacity:1;stroke-width:0.0995035;stroke-linecap:round;stroke-linejoin:round;paint-order:stroke fill markers"
       id="rect9562"
       width="4.981935"
       height="19.161289"
       x="-82.506287"
       y="-129.90771" /><rect
       style="fill:#000000;fill-opacity:1;stroke-width:0.137867;stroke-linecap:round;stroke-linejoin:round;paint-order:stroke fill markers"
       id="rect9562-2"
       width="4.9819436"
       height="36.784554"
       x="-130.48506"
       y="64.381027"
       transform="matrix(0.00221599,0.99999754,-0.9999998,6.3791253e-4,0,0)" /><rect
       style="fill:#000000;fill-opacity:1;stroke-width:0.12348;stroke-linecap:round;stroke-linejoin:round;paint-order:stroke fill markers"
       id="rect9562-2-7"
       width="6.0607805"
       height="24.255426"
       x="-116.80437"
       y="70.418938"
       transform="matrix(0.00120111,0.99999928,-0.99999931,0.00117692,0,0)" /><rect
       style="fill:#000000;fill-opacity:1;stroke-width:0.0978732;stroke-linecap:round;stroke-linejoin:round;paint-order:stroke fill markers"
       id="rect9562-6"
       width="4.981935"
       height="18.538548"
       x="-89.466286"
       y="-129.26855" /><rect
       style="fill:#000000;fill-opacity:1;stroke-width:0.0981123;stroke-linecap:round;stroke-linejoin:round;paint-order:stroke fill markers"
       id="rect9562-1"
       width="4.981935"
       height="18.629217"
       x="-96.426277"
       y="-129.26324" /><rect
       style="fill:#000000;fill-opacity:1;stroke-width:0.0754186;stroke-linecap:round;stroke-linejoin:round;paint-order:stroke fill markers"
       id="rect9562-1-1"
       width="3.8295987"
       height="14.320225"
       x="-145.74394"
       y="-83.381195"
       transform="rotate(28.447626)" /><rect
       style="fill:#000000;fill-opacity:1;stroke-width:0.0754186;stroke-linecap:round;stroke-linejoin:round;paint-order:stroke fill markers"
       id="rect9562-1-1-1"
       width="3.8295987"
       height="14.320225"
       x="1.9417343"
       y="-163.49661"
       transform="matrix(-0.87925291,0.47635524,0.47635524,0.87925291,0,0)" /><rect
       style="fill:#000000;fill-opacity:1;stroke-width:0.0886729;stroke-linecap:round;stroke-linejoin:round;paint-order:stroke fill markers"
       id="rect9562-1-54"
       width="4.9231391"
       height="15.398795"
       x="-78.081558"
       y="-131.17938"
       transform="matrix(0.99891622,-0.04654448,0.15952951,0.98719316,0,0)" /><rect
       style="fill:#000000;fill-opacity:1;stroke-width:0.0886729;stroke-linecap:round;stroke-linejoin:round;paint-order:stroke fill markers"
       id="rect9562-1-54-3"
       width="4.9231391"
       height="15.398795"
       x="87.824997"
       y="-123.32911"
       transform="matrix(-0.99891622,-0.04654448,-0.15952951,0.98719316,0,0)" /><rect
       style="fill:#000000;fill-opacity:1;stroke-width:0.100985;stroke-linecap:round;stroke-linejoin:round;paint-order:stroke fill markers"
       id="rect9562-1-5"
       width="4.981935"
       height="19.736128"
       x="-75.495483"
       y="-130.39256" /></g><path
     id="rect8389"
     style="fill:#e08747;fill-opacity:1;stroke-width:0.189393;stroke-linecap:round;stroke-linejoin:round;paint-order:stroke fill markers"
     d="M 71.414824,23.937288 37.09235,23.9382 v 10.828512 h -7.516507 v 4.151711 h 33.75971 V 42.28224 H 32.701858 v 4.15269 H 58.694482 V 49.9485 H 29.707958 v 4.152679 h 25.901626 v 3.593833 H 37.387921 v 9.253727 h 3.517502 c 0.01701,6.644007 0.159667,8.147026 0.941515,9.869341 1.125746,2.480089 2.971055,4.298848 5.581597,5.501333 5.959519,2.745114 13.34694,-1.010067 14.80497,-7.525316 l 0.610724,-2.72572 7.042828,0.134091 7.041835,0.133147 0.380715,1.832141 c 1.856839,8.950028 12.129527,12.121628 18.383165,5.675565 1.784338,-1.839308 2.382288,-2.889658 2.862718,-5.036455 0.0727,-0.73975 0.11686,-1.443018 0.14887,-2.12968 h 6.47615 v -7.312955 h -3.86592 l 0.0704,-17.976009 0.0285,-0.03242 -13.968232,-12.131135 v -0.02939 h -0.03429 l -0.01514,-0.01323 -0.01131,0.01323 H 78.39699 V 23.944992 h -6.982138 z m 6.981154,18.697329 h 5.782223 l 9.933939,8.627358 -0.0095,2.259848 H 78.395294 Z m 9.785176,24.315133 h 9.12e-4 c 0.286612,0.002 0.572532,0.03034 0.855396,0.08318 4.172536,0.782766 5.733324,6.366451 2.595552,9.286024 h -9.12e-4 c -2.530412,2.354459 -6.857467,1.545616 -8.329825,-1.557118 -0.954077,-2.011922 -0.954168,-2.840132 0.0036,-4.857376 0.849451,-1.790074 2.866662,-2.971754 4.874965,-2.954722 z m -36.56666,0.01136 c 0.650593,0.01891 1.325874,0.174052 2.022026,0.464878 4.446363,1.857831 4.487144,7.946527 0.0655,9.793984 -2.051478,0.857129 -2.511517,0.847563 -4.422808,-0.0949 -3.176127,-1.566306 -3.863337,-6.034377 -1.319307,-8.578387 1.016864,-1.016893 2.151646,-1.546353 3.377552,-1.584557 0.09186,-0.0037 0.184089,-0.0037 0.276961,-0.001 z" /></svg>
